<?xml version="1.0" encoding="iso-8859-1"?>
<!-- Generator: Adobe Illustrator 19.0.0, SVG Export Plug-In . SVG Version: 6.00 Build 0)  -->
<svg version="1.1" id="Layer_1" xmlns="http://www.w3.org/2000/svg" xmlns:xlink="http://www.w3.org/1999/xlink" x="0px" y="0px"
	 viewBox="0 0 511.982 511.982" style="enable-background:new 0 0 511.982 511.982;" xml:space="preserve">
<rect x="395.744" y="336.617" transform="matrix(0.7395 -0.6731 0.6731 0.7395 -183.029 389.4809)" style="fill:#1A1718;" width="2" height="150"/>
<path style="fill:#FFFFFF;" d="M241.33,409.106c-110.617,0-200.616-88.175-200.616-196.543S130.706,16.011,241.33,16.011
	s200.608,88.167,200.608,196.543S351.947,409.106,241.33,409.106z"/>
<path style="fill:#E81241;" d="M241.322,32.012c101.8,0,184.614,80.99,184.614,180.542s-82.814,180.55-184.614,180.55
	s-184.606-80.99-184.606-180.55S139.53,32.012,241.322,32.012 M241.322,0.01C122.817-1.102,25.849,94.057,24.713,212.554
	c1.128,118.505,98.104,213.665,216.609,212.553c118.505,1.112,215.489-94.047,216.617-212.553
	C456.803,94.049,359.827-1.102,241.322,0.01z"/>
<g>
	<rect x="145.635" y="196.553" style="fill:#999999;" width="191.391" height="32.003"/>
	<rect x="225.305" y="116.859" style="fill:#999999;" width="32.003" height="191.391"/>
</g>
<g>
</g>
<g>
</g>
<g>
</g>
<g>
</g>
<g>
</g>
<g>
</g>
<g>
</g>
<g>
</g>
<g>
</g>
<g>
</g>
<g>
</g>
<g>
</g>
<g>
</g>
<g>
</g>
<g>
</g>
</svg>
