<svg version="1.1" id="레이어_1" xmlns="http://www.w3.org/2000/svg" x="0" y="0" viewBox="0 0 400 500" style="enable-background:new 0 0 400 500" xml:space="preserve"><style>.st0{fill:none;stroke:#74beff;stroke-width:4;stroke-miterlimit:10}</style><path class="st0" d="m85 459 48-146c3-7 5-16 0-22l-6-5c-3-4-3-10 1-13-8-6-12-16-11-25 6 1 13-2 17-7s6-11 9-17c6-15 16-28 29-38l12-11 6-15c4-16 6-32 6-48 0-9 0-19 6-25s14-6 22-7c12-1 24-5 35-10 19-10 36-27 57-28"/><path class="st0" d="M173 191c4 3 5 8 5 13l-5 13-9 16c17 6 33-14 50-12 5 4 5 12 0 16l-4 3c-2 3-1 8 2 11 5 7 14 14 22 10 1-6 2-13 1-19 5-1 11-2 15-5s7-10 4-14c-3-7-12-9-13-15s4-11 9-11c6 0 11 4 13 8 3 5 4 10 5 16"/></svg>