<svg xmlns="http://www.w3.org/2000/svg" viewBox="0 0 300 300" style="enable-background:new 0 0 300 300" xml:space="preserve"><path d="M216 75c-7-4-16-4-23-2-6 2-11 7-11 12l4 8c1 2 2 5 0 8s-7 2-11 0l-4-2c-2-3 0-7 2-10 3-3 5-6 3-9-4-1-8-2-11 0s-4 5-5 8c-2 3-6 5-8 3-3-1-2-5-1-8s2-6 1-9-6-4-10-4h-14l-8 1c-3 2-4 5-3 7 1 3 5 3 7 4 3 0 6 2 6 4s-2 4-4 5c-4 2-10 2-14 1s-9-4-12-2l-3 3-7 9-3 6c-1 3 0 5 1 7l4 2c3 2 4 7 3 11l-9 8c-3 4-2 9 0 13 1 2 3 5 6 6 2 1 6 0 6-3 1-2 1-5 3-6l2 1c5 2 6 8 5 13 0 4-1 9 1 14s7 9 8 14c2 6-1 12 0 18 0 4 2 8 1 12 0 5-4 10-8 13" style="fill:none;stroke:#ffac00;stroke-width:4;stroke-miterlimit:10"/></svg>