<svg xmlns="http://www.w3.org/2000/svg" viewBox="0 0 400 400" style="enable-background:new 0 0 400 400" xml:space="preserve"><path d="m358 76-54-12h-6c-2 0-4 2-6 5-8 12-10 29-20 39-8 8-19 12-20 23l-1 11-4 5c-10 7-27 2-31-11l-2-7c-4-9-19-9-26-1-5 6-9 16-17 17s-14-7-21-10c-10-5-21 0-32 2-15 3-31-1-43-11-5 20-7 41-7 62 16-5 32-7 48-4 3 0 6 1 6 3 0 3-3 4-5 5l-14 3c-10 21 9 46 0 67-2 6-8 12-10 18-2 8 0 17-3 25-3 10-13 17-16 27l-1 4c-2 2-5 1-7-1l-2-7c-3-9-11-16-20-17 0-5 6-8 11-9s11-2 15-6c4-6 1-13-1-20-9-26-3-55 4-82" style="fill:none;stroke:#4fbdb5;stroke-width:4;stroke-miterlimit:10"/></svg>