<svg xmlns="http://www.w3.org/2000/svg" viewBox="0 0 300 300" style="enable-background:new 0 0 300 300" xml:space="preserve"><path d="m248 122-19 4c-3 0-8 2-8 6v6l-4 2c-4-1-8-4-10-8-3 0-6 3-5 6l5 8c2 2 5 4 5 7 2 6-4 12-1 17 1 3 5 5 5 8s-3 5-6 6-7 1-9 4v8c1 2 0 6-3 6-2 1-4-1-5-3-4-4-7-9-8-15v-5l5-3c3-1 5-6 5-10s-3-8-6-11l-7-8c-3-5-3-11-4-17v-12l-1-6c-1-4-7-6-11-5-5 1-8 3-12 6-5 4-10 7-12 13l-1 11c0 15 3 30 9 43 3 10 9 19 11 29 1 3 0 6-2 7-2 0-4-1-5-3-5-8-5-19-9-28l-2-3-4-1c-10-2-22 1-30 9-9 7-14 18-13 29v4l3 2 10 5c3 1 5 3 5 6-1 2-5 2-7 2-3-1-6-2-8-1l-3 3c-2 2-6 3-9 1-2-2-3-5-2-8l4-7c1-3-1-7-3-9l-8-7c-5-6-5-14-2-21s5-13 7-20c2-13-5-26-15-33-4-3-9-5-12-9-2-3-3-7-3-11 0-11 5-20 10-29s8-20 5-30" style="fill:none;stroke:#978dff;stroke-width:4;stroke-miterlimit:10"/></svg>