<svg xmlns="http://www.w3.org/2000/svg" viewBox="0 0 700 700" style="enable-background:new 0 0 700 700" xml:space="preserve"><path d="M439.26 129.85c4.15 2.1 1.85 8.53-1.47 11.8-3.32 3.26-7.58 7.52-5.6 11.74 1.09 2.32 3.85 3.63 4.57 6.09.8 2.71-1.24 5.55-.88 8.35.3 2.38 2.22 4.18 3.25 6.35 2.48 5.25-.11 11.16-1.56 15.39-1.89 5.51-3.66 13.9-2.59 26.04-3.65 1.91-8.45 5.21-10.69 10.74-3.15 7.8 1.85 14.2-2.05 17.17-6.15 4.69-17.72-4.99-21.71 1.63-2.01 3.35.63 7.78-.5 11.51-1.03 3.38-4.69 5.07-7.88 6.58-21.71 10.32-37.91 31.5-42.18 55.15-.61 3.35-.88 7.15 1.22 9.83 1.31 1.67 3.34 2.61 5.36 3.23 15.22 4.73 31.16-4.9 47.09-4.74 2.51.03 5.22.38 7.06 2.08 3.18 2.93 2.09 8.55-1.06 11.52-3.15 2.97-7.59 4.01-11.8 5-4.21.99-8.66 2.18-11.61 5.34-6.58 7.02-3.61 21.18-12.4 25.09-2.62 1.16-5.65.97-8.35 1.9-2.7.94-5.17 3.99-3.8 6.5.73 1.33 2.26 1.98 3.37 3.03 3.78 3.6 1.17 10.12-2.63 13.7s-8.83 6.46-10.34 11.46c-1.77 5.86 2.18 11.9 6.63 16.1 4.45 4.21 9.8 7.9 12.13 13.56s-.64 13.96-6.76 14.02c-3.99-.46-5.48.43-5.82 4.31-.7 6.68.03 25.82.07 26.77-2.4-.77-6.07-1.64-10.58-1.54-1.61.03-9.12-3.1-11.63 2.43-2.62 5.75-10.08 9.45-16.3 10.56-6.22 1.11-13.27 2.01-17.07 7.06-4.86 6.45-1.6 15.53-1.57 23.61.04 10.81-8.17 22.08-18.98 22.26-3.06.05-6.09-.74-9.15-.79-6.66-.14-10.03 3.83-9.16 10.42.27 4.95.81 9.21-6.49 9.58" style="fill:none;stroke:#ff95cc;stroke-width:4;stroke-miterlimit:10"/></svg>