<svg xmlns="http://www.w3.org/2000/svg" viewBox="0 0 300 300" style="enable-background:new 0 0 300 300" xml:space="preserve"><path d="M262 118c-3 4-11 3-13-2l-1-5c-2-5-9-5-13-4s-11 2-14-2c-5-4-2-13-5-18l-7-5c-2-1-5-5-4-8 1-2 4-3 3-5 0-2-2-3-3-5l1-4c0-5-6-9-11-8-5 2-8 5-12 8-5 3-10 5-14 2-4-2-5-7-9-9-4-1-9 1-12-1-5-3-2-11-6-15-2-4-8-4-13-4l-26 1c-6 1-12 1-17-2l-5-3c-4-1-8-1-11 1-3 3-4 7-2 11l4 6c1 2 2 5 0 6-1 2-4 2-6 2-5 1-12 4-13 10s5 12 10 9c2 0 3-2 4-3 3-2 7-2 10 1 3 2 4 6 3 10l-5 6-4 13c-1 4-3 9-6 11-3 3-9 3-12-1l-1-10c-3-4-10-2-12 2s-2 9-1 14l4 14c1 3 3 7 7 8 4 2 10-3 15-2s7 7 8 12v5c-1 2-3 2-4 1l-2-4c-2-1-6 1-6 3 0 3 1 5 3 7 14 20 29 40 52 48l14 5c5 3 9 7 9 12v4c0 4 6 6 10 6s9-1 13 1c9 4 10 18 19 21 4 1 8-1 13-1 4-1 10 2 9 7 0 3-3 4-6 5-6 3-13 4-19 4l-5-1c-2-1-3-3-3-5-5-13 3-26 3-40 0-3 0-6-2-9-4-5-12-6-17-10-8-6-8-18 0-24 7-6 19-2 23 7v4c-1 6-8 7-14 7" style="fill:none;stroke:#d2c48f;stroke-width:4;stroke-miterlimit:10"/></svg>