<svg xmlns="http://www.w3.org/2000/svg" viewBox="0 0 300 300" style="enable-background:new 0 0 300 300" xml:space="preserve"><path d="M30 138c7 1 10 10 7 15l-4 5c-2 1-2 4-1 5l4 2c7 1 15-6 15-14 0-4-3-8-1-12 1-7 11-9 15-14 4-4 5-11 9-13s8-2 11 0l7 8 4 5c2 2 4 2 6 2 8 2 15 3 23 2 7-1 15-4 20-10l8-13c2-4 7-9 12-10h10c3 1 7 2 9 4 3 4 3 9 2 13l-4 22c-1 4-2 9 0 14 3 7 14 10 20 4 3-3 4-8 8-11 4-4 12-2 15 3s2 13-2 17l-5 5c-2 3-1 8 2 11s9 3 14 4c4 0 10 3 10 8v6c1 2 5 1 7-1s6-1 6 2l-2 4c-1 3 3 5 6 4l9-3" style="fill:none;stroke:#c2a7ff;stroke-width:4;stroke-miterlimit:10"/></svg>